<svg width="24" height="24" viewBox="0 0 20 20" xmlns="http://www.w3.org/2000/svg" fill="currentColor" size="24" class="visible"><g clip-path="url(#clip0_6_3234)"><path fill-rule="evenodd" clip-rule="evenodd" d="M1.52332 5.98438C1.52332 3.63717 3.42611 1.73438 5.77332 1.73438H14.2263C16.5735 1.73438 18.4762 3.63717 18.4762 5.98438V9.61789C18.4762 10.0321 18.1405 10.3679 17.7262 10.3679C17.312 10.3679 16.9762 10.0321 16.9762 9.61789V5.98438C16.9762 4.46559 15.745 3.23438 14.2263 3.23438H5.77332C4.25453 3.23438 3.02332 4.46559 3.02332 5.98438V14.019C3.02332 15.5378 4.25453 16.769 5.77331 16.769H6.99978C7.414 16.769 7.74978 17.1048 7.74978 17.519C7.74978 17.9332 7.414 18.269 6.99978 18.269H5.77331C3.4261 18.269 1.52332 16.3662 1.52332 14.019V5.98438Z"></path><path d="M8.95166 8.38867C8.95166 9.2171 8.28009 9.88867 7.45166 9.88867 6.62323 9.88867 5.95166 9.2171 5.95166 8.38867 5.95166 7.56024 6.62323 6.88867 7.45166 6.88867 8.28009 6.88867 8.95166 7.56024 8.95166 8.38867ZM14.0483 8.38867C14.0483 9.2171 13.3768 9.88867 12.5483 9.88867 11.7199 9.88867 11.0483 9.2171 11.0483 8.38867 11.0483 7.56024 11.7199 6.88867 12.5483 6.88867 13.3768 6.88867 14.0483 7.56024 14.0483 8.38867Z"></path><path fill-rule="evenodd" clip-rule="evenodd" d="M10.0329 14.1213C9.95545 14.4692 9.61171 14.6903 9.26245 14.6155 8.91142 14.5404 8.68774 14.1949 8.76286 13.8439L9.39833 13.9799C8.76286 13.8439 8.76286 13.8439 8.76286 13.8439L8.7631 13.8428 8.76337 13.8415 8.764 13.8387 8.76559 13.8316 8.77018 13.8122C8.77389 13.7971 8.77893 13.7774 8.78549 13.754 8.79855 13.7073 8.81787 13.6445 8.84491 13.5711 8.89807 13.4268 8.98585 13.2285 9.12402 13.0288 9.4093 12.6166 9.94361 12.1667 10.7808 12.2511 11.4392 12.3175 11.9484 12.6515 12.1969 13.227 12.4182 13.7394 12.3892 14.3469 12.2663 14.9182 12.1371 15.5193 11.6947 16.1446 11.2653 16.6637 11.1537 16.7986 11.037 16.9332 10.9182 17.0658L11.8874 17.0658C12.2464 17.0658 12.5374 17.3568 12.5374 17.7158 12.5374 18.0748 12.2464 18.3658 11.8874 18.3658L9.39847 18.3658C9.13624 18.3658 8.8997 18.2082 8.79866 17.9662 8.69762 17.7243 8.75187 17.4453 8.93622 17.2588 9.3657 16.8244 9.85662 16.3271 10.2636 15.8351 10.691 15.3184 10.939 14.9073 10.9954 14.645 11.0959 14.1773 11.0668 13.8891 11.0035 13.7424 10.9768 13.6807 10.9456 13.6464 10.9097 13.6219 10.8705 13.5951 10.7941 13.5591 10.6504 13.5446 10.4249 13.5218 10.3007 13.613 10.1931 13.7685 10.1348 13.8528 10.0925 13.9452 10.0648 14.0205 10.0513 14.0569 10.0425 14.0862 10.0375 14.1041 10.035 14.1129 10.0335 14.119 10.0329 14.1213ZM12.8039 13.8059C12.8039 12.8737 13.5596 12.118 14.4918 12.118 15.4241 12.118 16.1798 12.8737 16.1798 13.8059V16.7878C16.1798 17.7201 15.4241 18.4758 14.4918 18.4758 13.5596 18.4758 12.8039 17.7201 12.8039 16.7878V13.8059ZM14.4918 17.1758C14.7061 17.1758 14.8798 17.0021 14.8798 16.7878V13.8059C14.8798 13.5916 14.7061 13.418 14.4918 13.418 14.2776 13.418 14.1039 13.5916 14.1039 13.8059V16.7878C14.1039 17.0021 14.2776 17.1758 14.4918 17.1758ZM16.8369 12.2776C16.5053 12.4153 16.3482 12.7957 16.4859 13.1272L18.4951 17.9651C18.6327 18.2966 19.0131 18.4538 19.3446 18.3161 19.6762 18.1784 19.8333 17.798 19.6956 17.4665L17.6865 12.6286C17.5488 12.2971 17.1684 12.1399 16.8369 12.2776Z"></path><path fill-rule="evenodd" clip-rule="evenodd" d="M19.3447 12.2776C19.6762 12.4153 19.8333 12.7957 19.6957 13.1272L17.6865 17.9651C17.5488 18.2966 17.1684 18.4538 16.8369 18.3161C16.5054 18.1784 16.3482 17.798 16.4859 17.4665L18.4951 12.6286C18.6328 12.2971 19.0131 12.1399 19.3447 12.2776Z"></path></g><defs><clipPath id="clip0_6_3234"><rect width="20" height="20"></rect></clipPath></defs></svg>