<svg width="24" height="24" viewBox="0 0 24 24" fill="currentColor" xmlns="http://www.w3.org/2000/svg" size="24"><g clip-path="url(#clip0_7_1334)"><path d="M24 12C24 5.37258 18.6274 0 12 0C5.37258 0 0 5.37258 0 12C0 18.6274 5.37258 24 12 24C18.6274 24 24 18.6274 24 12Z" fill="#1DA1F2"></path><path d="M15.6423 6.3125H17.572L13.3563 11.1308L18.3158 17.6875H14.4325L11.391 13.7109L7.91084 17.6875H5.98001L10.4892 12.5337L5.73151 6.3125H9.71334L12.4626 9.94725L15.6423 6.3125ZM14.9651 16.5325H16.0343L9.13234 7.40683H7.98492L14.9651 16.5325Z" fill="white"></path></g><defs><clipPath id="clip0_7_1334"><rect width="24" height="24" fill="white"></rect></clipPath></defs></svg>