<svg width="20" height="20" viewBox="0 0 24 24" xmlns="http://www.w3.org/2000/svg" fill="currentColor" size="20"><path fill-rule="evenodd" clip-rule="evenodd" d="M2.66602 5.6598C1.56145 5.6598 0.666016 6.55523 0.666016 7.6598V15.6726C0.666016 16.7772 1.56145 17.6726 2.66602 17.6726H4.51251C4.93713 17.6726 5.35074 17.8078 5.69344 18.0585L9.48508 20.8326C10.8064 21.7993 12.666 20.8556 12.666 19.2184V4.10661C12.666 2.46841 10.8043 1.52503 9.48329 2.4938L5.694 5.27261C5.35097 5.52417 4.93666 5.6598 4.51127 5.6598H2.66602ZM11.166 19.2184V4.10661C11.166 3.69706 10.7006 3.46122 10.3703 3.70341L6.58105 6.48222C5.98074 6.92245 5.2557 7.1598 4.51127 7.1598H2.66602C2.38987 7.1598 2.16602 7.38366 2.16602 7.6598V15.6726C2.16602 15.9488 2.38987 16.1726 2.66602 16.1726H4.51251C5.2556 16.1726 5.97941 16.4091 6.57914 16.8479L10.3708 19.622C10.7011 19.8636 11.166 19.6277 11.166 19.2184Z"></path><path d="M14.916 8.6598C14.916 8.24559 15.2518 7.9098 15.666 7.9098C17.7371 7.9098 19.416 9.58873 19.416 11.6598C19.416 13.7309 17.7371 15.4098 15.666 15.4098C15.2518 15.4098 14.916 15.074 14.916 14.6598C14.916 14.2456 15.2518 13.9098 15.666 13.9098C16.9087 13.9098 17.916 12.9024 17.916 11.6598C17.916 10.4172 16.9087 9.4098 15.666 9.4098C15.2518 9.4098 14.916 9.07402 14.916 8.6598Z"></path><path d="M15.7588 2.97758C15.3478 2.92632 14.973 3.21798 14.9218 3.62901C14.8705 4.04004 15.1622 4.41479 15.5732 4.46605C19.1488 4.91192 21.916 7.96333 21.916 11.6599C21.916 15.3565 19.1488 18.4079 15.5732 18.8538C15.1622 18.905 14.8705 19.2798 14.9218 19.6908C14.973 20.1019 15.3478 20.3935 15.7588 20.3423C20.0759 19.8039 23.416 16.1226 23.416 11.6599C23.416 7.19727 20.0759 3.51591 15.7588 2.97758Z"></path></svg>