<svg width="20" height="20" viewBox="0 0 20 20" xmlns="http://www.w3.org/2000/svg" fill="currentColor" size="20"><path fill-rule="evenodd" clip-rule="evenodd" d="M17.7474 2.23295C18.0403 2.52584 18.0403 3.00071 17.7474 3.29361L16.6174 4.42358C17.4693 5.50868 17.9391 6.85391 17.939 8.24757C17.939 9.89002 17.2866 11.4652 16.1252 12.6266C15.9845 12.7672 15.7938 12.8463 15.5949 12.8463C15.3959 12.8463 15.2052 12.7672 15.0645 12.6266L7.36724 4.92917C7.07435 4.63627 7.07435 4.1614 7.36724 3.86851C8.52863 2.70713 10.1038 2.05467 11.7462 2.05468C13.1335 2.05468 14.4727 2.52013 15.5552 3.36455L16.6868 2.23295C16.9797 1.94005 17.4545 1.94005 17.7474 2.23295ZM9.00087 4.44148L15.5522 10.993C16.1251 10.1988 16.439 9.23936 16.439 8.24757C16.4391 7.00294 15.9446 5.80929 15.0646 4.9292C14.1845 4.04911 12.9909 3.55468 11.7462 3.55468C10.7545 3.55467 9.79505 3.86862 9.00087 4.44148ZM8.53888 7.0975C8.83177 7.39039 8.83177 7.86526 8.53888 8.15816L7.17787 9.51916L10.4808 12.8221L11.6618 11.6411C11.9547 11.3482 12.4295 11.3482 12.7224 11.6411C13.0153 11.934 13.0153 12.4088 12.7224 12.7017L11.5414 13.8827L12.7001 15.0414C12.993 15.3343 12.993 15.8092 12.7001 16.1021C11.5328 17.2693 9.94971 17.9251 8.29899 17.9251C6.90028 17.9251 5.55011 17.4542 4.46036 16.6004L3.0592 18.0015C2.76631 18.2944 2.29143 18.2944 1.99854 18.0015C1.70565 17.7087 1.70565 17.2338 1.99854 16.9409L3.39969 15.5397C2.54577 14.45 2.07493 13.0997 2.07493 11.7009C2.07493 10.0502 2.73067 8.46709 3.89791 7.29985C4.03856 7.15919 4.22933 7.08017 4.42824 7.08017C4.62715 7.08017 4.81792 7.15919 4.95857 7.29985L6.11722 8.4585L7.47822 7.0975C7.77111 6.8046 8.24599 6.8046 8.53888 7.0975ZM4.47059 8.93319C3.89204 9.73346 3.57493 10.7009 3.57493 11.7009C3.57493 12.9539 4.07264 14.1555 4.95857 15.0414C5.84451 15.9273 7.04609 16.4251 8.29899 16.4251C9.29907 16.4251 10.2665 16.1079 11.0667 15.5294L4.47059 8.93319Z"></path></svg>