<svg width="20" height="20" viewBox="0 0 20 20" xmlns="http://www.w3.org/2000/svg" fill="currentColor" size="20"><path fill-rule="evenodd" clip-rule="evenodd" d="M13.088 13.2823C12.9442 12.9106 13.0348 12.4889 13.3187 12.2091L13.3963 12.1327L14.0982 12.845L14.0206 12.9214C14.2408 13.4902 14.1948 14.1456 13.8595 14.6911L12.658 16.6464C12.3196 17.1969 11.5558 17.2869 11.0989 16.8299L10.1995 15.9306L10.1954 15.9265L8.81268 14.5438L6.70546 13.6407C6.46945 13.5395 6.28139 13.3515 6.18024 13.1155L5.27715 11.0082L3.91654 9.64763L3.91236 9.64341L2.99072 8.72177C2.53388 8.26492 2.62366 7.50126 3.17401 7.16283L5.12854 5.96093C5.71242 5.60188 6.42224 5.57427 7.01716 5.84978L7.0911 5.77831C9.59842 3.35469 12.9817 1.99994 16.4689 1.99994C17.3094 1.99994 18 2.68136 18 3.52193C18 7.02665 16.5945 10.385 14.0982 12.845L13.3963 12.1327C15.7018 9.86065 17 6.75889 17 3.52194C17 3.24137 16.7649 2.99994 16.4689 2.99994C13.2385 2.99994 10.1051 4.2557 7.78611 6.49731L7.71216 6.56879C7.41505 6.85598 6.97189 6.93085 6.59693 6.7572C6.29858 6.61903 5.94375 6.63357 5.65236 6.81276L3.69783 8.01466L4.62311 8.93994L4.62728 8.94417L5.98425 10.3011C6.07421 10.3911 6.14618 10.4974 6.19629 10.6143L7.09938 12.7215L9.2066 13.6246C9.32353 13.6747 9.42983 13.7467 9.51979 13.8367L10.8988 15.2157L10.9025 15.2194L10.9066 15.2235L11.806 16.1228L13.0075 14.1675C13.1749 13.8953 13.1985 13.5679 13.088 13.2823Z"></path><path fill-rule="evenodd" clip-rule="evenodd" d="M12.7019 9.94757C11.9209 10.7286 10.6546 10.7286 9.87351 9.94757 9.09246 9.16652 9.09246 7.90019 9.87351 7.11914 10.6546 6.33809 11.9209 6.33809 12.7019 7.11914 13.483 7.90019 13.483 9.16652 12.7019 9.94757ZM10.5806 9.24046C10.9711 9.63098 11.6043 9.63098 11.9948 9.24046 12.3854 8.84994 12.3854 8.21677 11.9948 7.82625 11.6043 7.43572 10.9711 7.43572 10.5806 7.82625 10.1901 8.21677 10.1901 8.84994 10.5806 9.24046ZM5.98441 13.8366C6.17967 14.0319 6.17967 14.3485 5.98441 14.5438L5.27731 15.2509C5.08204 15.4461 4.76546 15.4461 4.5702 15.2509 4.37494 15.0556 4.37494 14.739 4.5702 14.5438L5.27731 13.8366C5.47257 13.6414 5.78915 13.6414 5.98441 13.8366ZM3.86307 11.7153C4.05834 11.9106 4.05834 12.2272 3.86307 12.4224L2.44886 13.8366C2.2536 14.0319 1.93702 14.0319 1.74175 13.8366 1.54649 13.6414 1.54649 13.3248 1.74175 13.1295L3.15597 11.7153C3.35123 11.52 3.66781 11.52 3.86307 11.7153ZM8.10575 15.958C8.30101 16.1532 8.30101 16.4698 8.10575 16.6651L6.69154 18.0793C6.49627 18.2746 6.17969 18.2746 5.98443 18.0793 5.78917 17.884 5.78917 17.5675 5.98443 17.3722L7.39864 15.958C7.59391 15.7627 7.91049 15.7627 8.10575 15.958Z"></path></svg>