<svg width="20" height="20" viewBox="0 0 24 24" xmlns="http://www.w3.org/2000/svg" fill="currentColor" size="20"><path d="M7.25 8C7.25 7.58579 7.58579 7.25 8 7.25H16.3024C16.7166 7.25 17.0524 7.58579 17.0524 8 17.0524 8.41421 16.7166 8.75 16.3024 8.75H8C7.58579 8.75 7.25 8.41421 7.25 8ZM7.25 12C7.25 11.5858 7.58579 11.25 8 11.25H13.9229C14.3371 11.25 14.6729 11.5858 14.6729 12 14.6729 12.4142 14.3371 12.75 13.9229 12.75H8C7.58579 12.75 7.25 12.4142 7.25 12Z"></path><path fill-rule="evenodd" clip-rule="evenodd" d="M20.5303 10.4697C20.8232 10.7626 20.8232 11.2374 20.5303 11.5303L13.5303 18.5303C13.2374 18.8232 12.7626 18.8232 12.4697 18.5303C12.1768 18.2374 12.1768 17.7626 12.4697 17.4697L19.4697 10.4697C19.7626 10.1768 20.2374 10.1768 20.5303 10.4697Z"></path><path fill-rule="evenodd" clip-rule="evenodd" d="M3.25 6C3.25 3.92893 4.92893 2.25 7 2.25H17C19.0711 2.25 20.75 3.92893 20.75 6V8C20.75 8.41421 20.4142 8.75 20 8.75C19.5858 8.75 19.25 8.41421 19.25 8V6C19.25 4.75736 18.2426 3.75 17 3.75H7C5.75736 3.75 4.75 4.75736 4.75 6V18C4.75 19.2426 5.75736 20.25 7 20.25H17C18.2426 20.25 19.25 19.2426 19.25 18V14.5C19.25 14.0858 19.5858 13.75 20 13.75C20.4142 13.75 20.75 14.0858 20.75 14.5V18C20.75 20.0711 19.0711 21.75 17 21.75H7C4.92893 21.75 3.25 20.0711 3.25 18V6Z"></path></svg>