<svg width="20" height="20" viewBox="0 0 20 20" xmlns="http://www.w3.org/2000/svg" fill="currentColor" size="20"><path fill-rule="evenodd" clip-rule="evenodd" d="M13.1019 7.46967C13.3948 7.76256 13.3948 8.23744 13.1019 8.53033L9.67333 11.9589C9.53267 12.0996 9.34191 12.1786 9.143 12.1786C8.94408 12.1786 8.75332 12.0996 8.61267 11.9589L6.89838 10.2446C6.60549 9.95172 6.60549 9.47685 6.89838 9.18396C7.19127 8.89106 7.66615 8.89106 7.95904 9.18396L9.143 10.3679L12.0412 7.46967C12.3341 7.17678 12.809 7.17678 13.1019 7.46967Z"></path><path fill-rule="evenodd" clip-rule="evenodd" d="M10.0022 1.25C10.2018 1.25058 10.393 1.33074 10.5334 1.47274C11.3469 2.29571 13.2395 3.25 17 3.25C17.4142 3.25 17.75 3.58579 17.75 4V11.0984C17.75 13.1618 16.6444 15.067 14.8528 16.0908L10.3721 18.6512C10.1415 18.7829 9.85847 18.7829 9.6279 18.6512L5.1472 16.0908C3.35564 15.067 2.25 13.1618 2.25 11.0984V4C2.25 3.58579 2.58579 3.25 3 3.25C6.75541 3.25 8.66917 2.27017 9.46967 1.46967C9.61085 1.32849 9.8025 1.24943 10.0022 1.25ZM3.75 4.73732V11.0984C3.75 12.6235 4.56722 14.0317 5.89141 14.7884L10 17.1362L14.1086 14.7884C15.4328 14.0317 16.25 12.6235 16.25 11.0984V4.73764C13.2188 4.63585 11.2151 3.91658 9.99691 2.99075C8.78726 3.89866 6.77873 4.63309 3.75 4.73732Z"></path></svg>