<svg width="20" height="20" viewBox="0 0 20 20" xmlns="http://www.w3.org/2000/svg" fill="currentColor" size="20"><path fill-rule="evenodd" clip-rule="evenodd" d="M0.25 6C0.25 3.92893 1.92893 2.25 4 2.25H16C18.0711 2.25 19.75 3.92893 19.75 6V14C19.75 16.0711 18.0711 17.75 16 17.75H4C1.92893 17.75 0.25 16.0711 0.25 14V6ZM4 3.75C2.75736 3.75 1.75 4.75736 1.75 6V14C1.75 15.2426 2.75736 16.25 4 16.25H16C17.2426 16.25 18.25 15.2426 18.25 14V6C18.25 4.75736 17.2426 3.75 16 3.75H4Z"></path><path fill-rule="evenodd" clip-rule="evenodd" d="M0.887214 4.06743C1.12608 3.72903 1.59405 3.64834 1.93245 3.88721L9.27909 9.07307C9.71124 9.37813 10.2886 9.37813 10.7208 9.07307L18.0674 3.88721C18.4058 3.64834 18.8738 3.72903 19.1127 4.06743C19.3515 4.40583 19.2709 4.8738 18.9325 5.11267L11.5858 10.2985C10.6351 10.9696 9.36481 10.9696 8.41406 10.2985L1.06743 5.11267C0.729028 4.8738 0.648344 4.40583 0.887214 4.06743Z"></path></svg>