<svg width="20" height="20" viewBox="0 0 24 24" xmlns="http://www.w3.org/2000/svg" fill="currentColor" size="20"><path d="M12.25 2.75C7.14137 2.75 3 6.89137 3 12C3 17.1086 7.14137 21.25 12.25 21.25C13.6816 21.25 15.0352 20.9253 16.2431 20.3463C16.4969 20.2246 16.7762 20.2129 16.9687 20.2168C17.1843 20.2211 17.4203 20.2502 17.6531 20.2884C18.0636 20.3556 18.5404 20.4644 18.9933 20.5678C19.0519 20.5811 19.1101 20.5944 19.1678 20.6075C19.6895 20.7261 20.1653 20.8295 20.5432 20.8762C20.5675 20.8792 20.5909 20.8819 20.6133 20.8843C20.523 20.6769 20.3921 20.4281 20.2349 20.1355C20.2238 20.1147 20.2125 20.0936 20.201 20.0723C20.0147 19.7256 19.7973 19.3213 19.6591 18.9564C19.5853 18.7613 19.5163 18.5336 19.4976 18.3001C19.4789 18.0665 19.5053 17.7493 19.7138 17.465C20.8369 15.9339 21.5 14.0455 21.5 12C21.5 6.89137 17.3586 2.75 12.25 2.75ZM1.5 12C1.5 6.06294 6.31294 1.25 12.25 1.25C18.1871 1.25 23 6.06294 23 12C23 14.3262 22.2603 16.4817 21.0035 18.2414C21.0134 18.2836 21.0312 18.3439 21.0619 18.4252C21.1642 18.6951 21.3393 19.0214 21.5469 19.408L21.5565 19.426C21.7506 19.7875 21.9822 20.2189 22.112 20.6018C22.1768 20.7932 22.2384 21.0333 22.2299 21.2833C22.2208 21.5538 22.1244 21.8816 21.8294 22.1219C21.5706 22.3327 21.2579 22.3803 21.058 22.3946C20.834 22.4107 20.5914 22.3936 20.3593 22.3649C19.8941 22.3074 19.3451 22.1861 18.8354 22.0702C18.7767 22.0569 18.7184 22.0436 18.6607 22.0305C18.1989 21.9252 17.7717 21.8278 17.4107 21.7686C17.2085 21.7355 17.0518 21.7188 16.9386 21.7165C16.8941 21.7156 16.8657 21.7172 16.8502 21.7186C15.4547 22.3802 13.8945 22.75 12.25 22.75C6.31294 22.75 1.5 17.9371 1.5 12Z"></path><path d="M10.5776 8.28947C10.2233 8.61045 10.0031 8.99713 9.91759 9.22273C9.77072 9.61003 9.33768 9.80493 8.95039 9.65805C8.56309 9.51118 8.36819 9.07814 8.51506 8.69084C8.6769 8.2641 9.02476 7.67226 9.57056 7.17781C10.1275 6.67331 10.916 6.24976 11.9281 6.24976C13.0664 6.24976 13.9857 6.59583 14.6177 7.25178C15.2434 7.90112 15.5 8.76336 15.5 9.62977C15.5 10.317 15.2466 10.8734 14.9232 11.3347C14.6551 11.7171 14.3105 12.0701 14.0087 12.3794C13.9641 12.4251 13.9203 12.47 13.8779 12.5138C13.1777 13.237 12.6781 13.8458 12.6781 14.7878C12.6781 15.202 12.3423 15.5378 11.9281 15.5378C11.5139 15.5378 11.1781 15.202 11.1781 14.7878C11.1781 13.1975 12.0895 12.2045 12.8002 11.4704C12.8484 11.4206 12.8953 11.3725 12.9409 11.3256C13.2515 11.0063 13.502 10.7489 13.695 10.4736C13.9007 10.1802 14 9.91973 14 9.62977C14 9.04931 13.8305 8.59654 13.5376 8.29259C13.2511 7.99526 12.7594 7.74976 11.9281 7.74976C11.3645 7.74976 10.9209 7.97855 10.5776 8.28947ZM11.9281 16.2644C12.3423 16.2644 12.6781 16.6002 12.6781 17.0144V17.6119C12.6781 18.0261 12.3423 18.3619 11.9281 18.3619C11.5139 18.3619 11.1781 18.0261 11.1781 17.6119V17.0144C11.1781 16.6002 11.5139 16.2644 11.9281 16.2644Z"></path></svg>