<svg width="20" height="20" viewBox="0 0 20 20" xmlns="http://www.w3.org/2000/svg" fill="currentColor" size="20"><path d="M10.5293 5.75C10.5293 5.33579 10.1935 5 9.7793 5C9.36508 5 9.0293 5.33579 9.0293 5.75V6.24151C7.9328 6.51551 7 7.35929 7 8.55593C7 10.0282 8.41203 10.9664 9.80369 10.9664L9.80987 10.9663C10.6746 10.9737 11.0957 11.5174 11.0957 11.8767C11.0957 12.2384 10.6688 12.7871 9.79201 12.7871C9.12204 12.7871 8.6711 12.4383 8.53782 12.1191C8.37825 11.7368 7.93902 11.5563 7.55678 11.7159C7.17453 11.8754 6.99402 12.3147 7.15359 12.6969C7.47389 13.4642 8.19365 13.9947 9.02932 14.1966L9.02933 14.6033C9.02933 15.0175 9.36513 15.3533 9.77934 15.3533C10.1936 15.3533 10.5293 15.0175 10.5293 14.6033L10.5293 14.2001C11.6418 13.9361 12.5957 13.0868 12.5957 11.8767C12.5957 10.4044 11.1837 9.46626 9.79201 9.46626L9.78583 9.46628C8.92111 9.45889 8.5 8.91523 8.5 8.55593C8.5 8.19417 8.92691 7.64551 9.80369 7.64551C10.4737 7.64551 10.9246 7.99428 11.0579 8.31355C11.2175 8.6958 11.6567 8.87631 12.0389 8.71674C12.4212 8.55717 12.6017 8.11794 12.4421 7.7357C12.1171 6.95711 11.3807 6.42233 10.5293 6.22732V5.75Z"></path><path fill-rule="evenodd" clip-rule="evenodd" d="M10 2.75C5.99594 2.75 2.75 5.99594 2.75 10C2.75 14.0041 5.99594 17.25 10 17.25C14.0041 17.25 17.25 14.0041 17.25 10C17.25 5.99594 14.0041 2.75 10 2.75ZM1.25 10C1.25 5.16751 5.16751 1.25 10 1.25C14.8325 1.25 18.75 5.16751 18.75 10C18.75 14.8325 14.8325 18.75 10 18.75C5.16751 18.75 1.25 14.8325 1.25 10Z"></path></svg>