<svg width="20" height="20" viewBox="0 0 20 20" xmlns="http://www.w3.org/2000/svg" fill="currentColor" size="20"><g clip-path="url(#clip0_6_3249)"><path fill-rule="evenodd" clip-rule="evenodd" d="M2.31891 6.10687C2.31891 4.31194 3.77398 2.85687 5.56891 2.85687H14.431C16.226 2.85687 17.681 4.31195 17.681 6.10687V9.12603C17.681 9.54025 17.3453 9.87603 16.931 9.87603C16.5168 9.87603 16.181 9.54025 16.181 9.12603V6.10687C16.181 5.14037 15.3975 4.35687 14.431 4.35687H5.56891C4.60241 4.35687 3.81891 5.14037 3.81891 6.10687V15.3931C3.81891 16.6358 4.82627 17.6431 6.06891 17.6431H9.2472C9.66141 17.6431 9.9972 17.9789 9.9972 18.3931C9.9972 18.8074 9.66141 19.1431 9.2472 19.1431H6.06891C3.99784 19.1431 2.31891 17.4642 2.31891 15.3931V6.10687Z"></path><path d="M7 3.5C7 3.22386 7.22386 3 7.5 3H12.5C12.7761 3 13 3.22386 13 3.5V3.99609C13 4.27224 12.7761 4.49609 12.5 4.49609H7.5C7.22386 4.49609 7 4.27224 7 3.99609V3.5Z"></path><path fill-rule="evenodd" clip-rule="evenodd" d="M12.5 4.49609C12.7761 4.49609 13 4.27224 13 3.99609V3.5C13 3.22386 12.7761 3 12.5 3H7.5C7.22386 3 7 3.22386 7 3.5V3.99609C7 4.27224 7.22386 4.49609 7.5 4.49609H12.5ZM7.5 1.5H12.5C13.6046 1.5 14.5 2.39543 14.5 3.5V3.99609C14.5 5.10066 13.6046 5.99609 12.5 5.99609H7.5C6.39543 5.99609 5.5 5.10066 5.5 3.99609V3.5C5.5 2.39543 6.39543 1.5 7.5 1.5ZM6 9.25C6 8.83579 6.33579 8.5 6.75 8.5H13.25C13.6642 8.5 14 8.83579 14 9.25 14 9.66421 13.6642 10 13.25 10H6.75C6.33579 10 6 9.66421 6 9.25ZM6 12.25C6 11.8358 6.33579 11.5 6.75 11.5H9.25C9.66421 11.5 10 11.8358 10 12.25 10 12.6642 9.66421 13 9.25 13H6.75C6.33579 13 6 12.6642 6 12.25ZM11.9662 14.2897 12.5542 14.4244C12.7681 14.4734 12.9406 14.6309 13.0088 14.8395 13.0769 15.048 13.0308 15.277 12.8871 15.4428L11.898 16.5849C11.7509 16.7547 11.524 16.8325 11.3037 16.7887 11.0833 16.7449 10.9035 16.5862 10.8325 16.3731 10.6541 15.8371 10.5875 15.2741 10.6307 14.7192 10.7097 13.7038 11.1574 12.7125 11.9643 11.966 13.6652 10.3924 16.3197 10.4957 17.8933 12.1966 18.1277 12.4499 18.1123 12.8454 17.859 13.0798 17.6056 13.3142 17.2102 13.2988 16.9757 13.0454 15.871 11.8513 14.0074 11.7788 12.8132 12.8836 12.3872 13.2777 12.1041 13.7676 11.9662 14.2897ZM17.6618 15.805 17.0737 15.6703C16.8598 15.6213 16.6873 15.4638 16.6192 15.2553 16.551 15.0467 16.5972 14.8177 16.7408 14.6519L17.73 13.5099C17.877 13.3401 18.1039 13.2622 18.3243 13.3061 18.5446 13.3499 18.7245 13.5085 18.7954 13.7217 18.9738 14.2576 19.0405 14.8206 18.9973 15.3755 18.9182 16.391 18.4705 17.3822 17.6636 18.1287 15.9627 19.7023 13.3082 19.5991 11.7346 17.8982 11.5002 17.6448 11.5156 17.2494 11.769 17.015 12.0224 16.7805 12.4178 16.7959 12.6522 17.0493 13.7569 18.2434 15.6206 18.3159 16.8147 17.2111 17.2407 16.817 17.5238 16.3272 17.6618 15.805Z"></path></g><defs><clipPath id="clip0_6_3249"><rect width="20" height="20"></rect></clipPath></defs></svg>