<svg width="24" height="24" viewBox="0 0 24 24" fill="currentColor" xmlns="http://www.w3.org/2000/svg" size="24"><g clip-path="url(#clip0_7_1351)"><path d="M12 24C18.6274 24 24 18.6274 24 12C24 5.37258 18.6274 0 12 0C5.37258 0 0 5.37258 0 12C0 18.6274 5.37258 24 12 24Z" fill="#00B900"></path><path d="M12.0002 5C7.58169 5 4 7.82177 4 11.3023C4 14.5353 7.09173 17.1982 11.0729 17.5609C11.1388 17.5721 11.2017 17.5968 11.2576 17.6333C11.3135 17.6699 11.3613 17.7176 11.398 17.7734C11.5748 18.0646 11.4492 18.685 11.312 19.3806C11.1747 20.0762 11.921 19.7152 12.0861 19.6347C12.2175 19.5708 15.5999 17.6626 17.6135 15.7912C19.086 14.6479 20 13.0592 20 11.3025C20.0005 7.82177 16.4186 5 12.0002 5ZM9.33349 12.9517C9.33246 13.0649 9.28659 13.173 9.20595 13.2523C9.12531 13.3317 9.01649 13.3757 8.90341 13.3748H7.44084C7.18265 13.3748 6.83865 13.2855 6.83865 12.867V9.7371C6.83912 9.68105 6.85063 9.62565 6.8725 9.57405C6.89437 9.52245 6.92618 9.47567 6.96611 9.43637C7.00605 9.39708 7.05333 9.36604 7.10525 9.34503C7.15718 9.32403 7.21272 9.31346 7.26873 9.31394H7.35478C7.41078 9.31346 7.46633 9.32403 7.51825 9.34503C7.57017 9.36604 7.61745 9.39707 7.65739 9.43637C7.69733 9.47566 7.72914 9.52244 7.75101 9.57404C7.77288 9.62563 7.78438 9.68104 7.78486 9.73708V12.4439H8.9032C9.01632 12.4429 9.12519 12.4869 9.20588 12.5663C9.28657 12.6456 9.33248 12.7538 9.3335 12.867V12.9517H9.33349ZM10.5391 12.8675C10.5391 12.9815 10.4939 13.0909 10.4133 13.1715C10.3327 13.2521 10.2235 13.2974 10.1095 13.2974C9.99559 13.2974 9.88632 13.2521 9.80575 13.1715C9.72519 13.0909 9.67993 12.9815 9.67993 12.8675V9.82685C9.67993 9.71283 9.72519 9.60347 9.80575 9.52284C9.88632 9.44221 9.99559 9.39691 10.1095 9.39691C10.2235 9.39691 10.3327 9.44221 10.4133 9.52284C10.4939 9.60347 10.5391 9.71283 10.5391 9.82685V12.8675ZM14.323 12.8675C14.3113 12.9769 14.262 13.0789 14.1836 13.156C14.1052 13.2332 14.0024 13.2808 13.8929 13.2906C13.7937 13.3076 13.6917 13.2934 13.6009 13.2499C13.5102 13.2065 13.4351 13.1359 13.386 13.048L12.0002 11.1029V12.867C11.9976 12.9793 11.9511 13.0862 11.8707 13.1647C11.7904 13.2432 11.6826 13.2871 11.5703 13.2871C11.458 13.2871 11.3502 13.2432 11.2698 13.1647C11.1895 13.0862 11.143 12.9793 11.1403 12.867V9.82152C11.1408 9.76551 11.1523 9.71013 11.1742 9.65856C11.196 9.60699 11.2278 9.56024 11.2677 9.52097C11.3076 9.4817 11.3549 9.45068 11.4068 9.42968C11.4587 9.40869 11.5142 9.39813 11.5702 9.39861C11.6723 9.39925 11.7722 9.42865 11.8584 9.48344C11.9446 9.53823 12.0137 9.61621 12.0577 9.70845C12.191 9.90547 13.4638 11.6815 13.4638 11.6815V9.82154C13.4666 9.70918 13.5131 9.60236 13.5935 9.52387C13.6739 9.44538 13.7817 9.40145 13.894 9.40145C14.0063 9.40145 14.1141 9.44538 14.1945 9.52387C14.2749 9.60236 14.3214 9.70918 14.3242 9.82154V12.867L14.323 12.8675ZM16.9037 10.9219C16.9592 10.9219 17.0142 10.9328 17.0655 10.9541C17.1168 10.9753 17.1634 11.0065 17.2026 11.0458C17.2419 11.0851 17.273 11.1317 17.2943 11.1831C17.3155 11.2344 17.3265 11.2894 17.3265 11.345C17.3265 11.4006 17.3155 11.4556 17.2943 11.5069C17.273 11.5583 17.2419 11.6049 17.2026 11.6442C17.1634 11.6835 17.1168 11.7147 17.0655 11.7359C17.0142 11.7572 16.9592 11.7681 16.9037 11.7681H15.7853V12.4448H16.9037C16.96 12.4435 17.016 12.4535 17.0685 12.4741C17.1209 12.4948 17.1687 12.5258 17.209 12.5652C17.2493 12.6046 17.2813 12.6517 17.3032 12.7036C17.3251 12.7556 17.3363 12.8115 17.3363 12.8679C17.3363 12.9243 17.3251 12.9801 17.3032 13.0321C17.2813 13.084 17.2493 13.1311 17.209 13.1705C17.1687 13.2099 17.1209 13.2409 17.0685 13.2616C17.016 13.2822 16.96 13.2922 16.9037 13.2909H15.2263C15.1758 13.2915 15.1258 13.2821 15.0789 13.2632C15.0321 13.2444 14.9895 13.2165 14.9535 13.1812C14.9174 13.1459 14.8887 13.1038 14.869 13.0573C14.8492 13.0108 14.8388 12.9609 14.8384 12.9104V9.77979C14.8388 9.72928 14.8492 9.67935 14.8689 9.63286C14.8886 9.58636 14.9173 9.54423 14.9534 9.50886C14.9894 9.47349 15.0321 9.44559 15.0789 9.42676C15.1257 9.40792 15.1758 9.39853 15.2263 9.3991H16.9037C16.96 9.39779 17.016 9.40775 17.0685 9.42842C17.1209 9.44909 17.1687 9.48003 17.209 9.51945C17.2493 9.55886 17.2813 9.60594 17.3032 9.65792C17.3251 9.7099 17.3363 9.76573 17.3363 9.82213C17.3363 9.87853 17.3251 9.93436 17.3032 9.98634C17.2813 10.0383 17.2493 10.0854 17.209 10.1248C17.1687 10.1642 17.1209 10.1952 17.0685 10.2158C17.016 10.2365 16.96 10.2465 16.9037 10.2452H15.7853V10.9221H16.9037L16.9037 10.9219Z" fill="white"></path></g><defs><clipPath id="clip0_7_1351"><rect width="24" height="24" fill="white"></rect></clipPath></defs></svg>