<svg width="24" height="24" viewBox="0 0 24 24" fill="currentColor" xmlns="http://www.w3.org/2000/svg" size="24"><g clip-path="url(#clip0_7_1345)"><path d="M24 12C24 5.37258 18.6274 0 12 0C5.37258 0 0 5.37258 0 12C0 18.6274 5.37258 24 12 24C18.6274 24 24 18.6274 24 12Z" fill="#596AEA"></path><path fill-rule="evenodd" clip-rule="evenodd" d="M16.5153 17.9782C16.2772 17.9981 16.047 17.8931 15.8949 17.7089C15.8299 17.6303 15.7553 17.5396 15.6753 17.4416C15.4284 17.1396 15.5757 16.6845 15.9329 16.5278C16.1032 16.453 16.2606 16.3738 16.4057 16.2925C16.8049 16.0686 16.5655 15.7577 16.1364 15.917C15.3978 16.2272 14.6887 16.4341 13.9945 16.5523C12.5763 16.8181 11.2764 16.7443 10.1685 16.5374C9.32648 16.375 8.60264 16.1386 7.997 15.9023C7.65728 15.7693 7.28798 15.6068 6.91868 15.4C6.89648 15.3853 6.87434 15.3742 6.8522 15.3631C6.83 15.352 6.80786 15.3409 6.78572 15.3262C6.76274 15.3146 6.74864 15.3032 6.73658 15.2917C6.72986 15.2852 6.71192 15.2737 6.70382 15.2691C6.60956 15.2163 6.53024 15.3192 6.60332 15.3988C6.88814 15.709 7.39622 16.1574 8.1869 16.5107C8.51894 16.6591 8.65304 17.0831 8.4245 17.366C8.32712 17.4866 8.23586 17.599 8.15798 17.6946C8.00084 17.8876 7.7612 17.9981 7.51328 17.9769C6.28118 17.8715 5.36396 17.4711 4.71242 17.0386C3.70448 16.3695 3.37368 15.1133 3.50586 13.9108C3.75839 11.6133 4.42439 9.65845 4.92399 8.44903C5.28702 7.57027 5.90525 6.80995 6.7538 6.38101C8.18198 5.65902 9.36878 5.59638 9.62828 5.59163C9.66188 5.59101 9.69338 5.60621 9.71486 5.63202C9.76856 5.69643 9.73766 5.79503 9.65744 5.81929C8.29736 6.23029 7.32914 6.74137 6.72302 7.12753C6.59708 7.20775 6.67958 7.33771 6.81524 7.27543C8.39588 6.58111 9.6515 6.38911 10.1685 6.34477L10.2016 6.33919C10.2762 6.32647 10.3422 6.31525 10.4196 6.31525C11.3207 6.19705 12.34 6.16753 13.4036 6.28567C13.8014 6.33175 14.2076 6.39799 14.6204 6.48847C15.1345 6.60115 15.3255 6.22591 14.8305 6.04711C14.6934 5.99762 14.5516 5.94888 14.4048 5.90123C14.2957 5.8658 14.2571 5.73017 14.3326 5.64384C14.3619 5.61042 14.4025 5.59089 14.4469 5.59196C14.7336 5.59892 15.8886 5.67161 17.2772 6.36661C18.1462 6.80161 18.778 7.57939 19.1476 8.47813C19.6436 9.68437 20.2974 11.6146 20.5504 13.881C20.6867 15.1023 20.3469 16.3786 19.3186 17.0516C18.6626 17.481 17.7436 17.876 16.5153 17.9782ZM9.26738 11.1014C8.42534 11.1014 7.7606 11.84 7.7606 12.7412C7.7606 13.6423 8.4401 14.3809 9.26738 14.3809C10.1094 14.3809 10.7741 13.6423 10.7741 12.7412C10.7889 11.84 10.1094 11.1014 9.26738 11.1014ZM14.6592 11.1014C13.8171 11.1014 13.1524 11.84 13.1524 12.7412C13.1524 13.6423 13.8319 14.3809 14.6592 14.3809C15.5011 14.3809 16.1659 13.6423 16.1659 12.7412C16.1659 11.84 15.5011 11.1014 14.6592 11.1014Z" fill="white"></path></g><defs><clipPath id="clip0_7_1345"><rect width="24" height="24" fill="white"></rect></clipPath></defs></svg>