<svg width="20" height="20" viewBox="0 0 24 24" xmlns="http://www.w3.org/2000/svg" fill="currentColor" size="20"><path fill-rule="evenodd" clip-rule="evenodd" d="M11.9992 2.95898C6.91402 2.95898 2.99805 6.59889 2.99805 10.8489C2.99805 13.1405 4.11659 15.2305 5.95435 16.6926C6.39651 17.0444 6.42755 17.5419 6.40391 17.804C6.38028 18.066 6.29096 18.3098 6.21649 18.4857C6.07832 18.8121 5.86377 19.1885 5.683 19.5057C5.66456 19.5381 5.64647 19.5698 5.62884 19.6008C5.58193 19.6834 5.53748 19.7621 5.49575 19.8372C5.65887 19.8036 5.8357 19.7635 6.02367 19.7174C6.96799 19.4861 8.0567 19.1413 8.79645 18.8951C9.51668 18.6554 10.2568 18.6151 10.9479 18.6856C11.2924 18.7207 11.6432 18.7388 11.9992 18.7388C17.5465 18.7388 21.0004 15.13 21.0004 10.8489C21.0004 6.59889 17.0844 2.95898 11.9992 2.95898ZM4.5958 19.9519C4.57383 19.9495 4.57808 19.9477 4.60035 19.9523C4.59869 19.9522 4.59717 19.952 4.5958 19.9519ZM0.998047 10.8489C0.998047 5.27938 6.03741 0.958984 11.9992 0.958984C17.961 0.958984 23.0004 5.27938 23.0004 10.8489C23.0004 16.3874 18.4918 20.7388 11.9992 20.7388C11.5754 20.7388 11.1569 20.7173 10.7449 20.6752C10.2678 20.6266 9.82208 20.6616 9.42813 20.7927C8.67429 21.0437 7.52415 21.409 6.4995 21.66C5.99185 21.7843 5.47999 21.8895 5.04886 21.9325C4.83613 21.9537 4.60266 21.9643 4.38089 21.9403C4.20356 21.9211 3.81727 21.861 3.51342 21.5572C3.17488 21.2186 3.11806 20.7996 3.13072 20.5174C3.14302 20.2432 3.22209 19.987 3.29684 19.7903C3.44723 19.3945 3.6927 18.9598 3.89003 18.6126C3.90233 18.591 3.91447 18.5696 3.92645 18.5486C4.07216 18.2923 4.19346 18.079 4.2835 17.9006C2.27311 16.1224 0.998047 13.6314 0.998047 10.8489Z"></path><path fill-rule="evenodd" clip-rule="evenodd" d="M7.11133 8.62598C7.11133 8.07369 7.55904 7.62598 8.11133 7.62598H15.89C16.4423 7.62598 16.89 8.07369 16.89 8.62598 16.89 9.17826 16.4423 9.62598 15.89 9.62598H8.11133C7.55904 9.62598 7.11133 9.17826 7.11133 8.62598ZM7.11133 13.0712C7.11133 12.5189 7.55904 12.0712 8.11133 12.0712H12.5563C13.1086 12.0712 13.5563 12.5189 13.5563 13.0712 13.5563 13.6235 13.1086 14.0712 12.5563 14.0712H8.11133C7.55904 14.0712 7.11133 13.6235 7.11133 13.0712Z"></path></svg>