<svg width="20" height="20" viewBox="0 0 24 24" xmlns="http://www.w3.org/2000/svg" fill="currentColor" size="20"><path d="M3.25 6C3.25 3.92893 4.92893 2.25 7 2.25H17C19.0711 2.25 20.75 3.92893 20.75 6V12.0745C20.75 12.4888 20.4142 12.8245 20 12.8245C19.5858 12.8245 19.25 12.4888 19.25 12.0745V6C19.25 4.75736 18.2426 3.75 17 3.75H7C5.75736 3.75 4.75 4.75736 4.75 6V18C4.75 19.2426 5.75736 20.25 7 20.25H11.1917C11.6059 20.25 11.9417 20.5858 11.9417 21C11.9417 21.4142 11.6059 21.75 11.1917 21.75H7C4.92893 21.75 3.25 20.0711 3.25 18V6Z"></path><path d="M7.25 8C7.25 7.58579 7.58579 7.25 8 7.25H16C16.4142 7.25 16.75 7.58579 16.75 8 16.75 8.41421 16.4142 8.75 16 8.75H8C7.58579 8.75 7.25 8.41421 7.25 8ZM8 11.25C7.58579 11.25 7.25 11.5858 7.25 12 7.25 12.4142 7.58579 12.75 8 12.75H12C12.4142 12.75 12.75 12.4142 12.75 12 12.75 11.5858 12.4142 11.25 12 11.25H8Z"></path><path fill-rule="evenodd" clip-rule="evenodd" d="M14.4378 15.8994C14.4378 14.9329 15.2213 14.1494 16.1878 14.1494H20.2795C21.246 14.1494 22.0295 14.9329 22.0295 15.8994L22.0295 21.504C22.0295 21.7644 21.8944 22.0061 21.6727 22.1427C21.4509 22.2792 21.1743 22.2909 20.9418 22.1736L18.2337 20.8078L15.5256 22.1736C15.2931 22.2909 15.0164 22.2792 14.7946 22.1427C14.5729 22.0061 14.4378 21.7644 14.4378 21.504L14.4378 15.8994ZM16.1878 15.6494C16.0497 15.6494 15.9378 15.7613 15.9378 15.8994L15.9378 20.2857L17.8959 19.2982C18.1083 19.191 18.359 19.191 18.5714 19.2982L20.5295 20.2857L20.5295 15.8994C20.5295 15.7613 20.4176 15.6494 20.2795 15.6494H16.1878Z"></path></svg>