<svg width="20" height="20" viewBox="0 0 24 24" xmlns="http://www.w3.org/2000/svg" fill="currentColor" size="20"><path fill-rule="evenodd" clip-rule="evenodd" d="M2.39165 2.01529C2.46903 1.67354 2.77274 1.43091 3.12314 1.43091H20.8768C21.2272 1.43091 21.531 1.67354 21.6083 2.01529L22.6527 6.62792C22.665 6.68227 22.6712 6.73782 22.6712 6.79354C22.6712 8.87377 20.739 10.3665 18.6141 10.3665C17.3016 10.3665 16.0626 9.79694 15.307 8.87119C14.5515 9.79694 13.3125 10.3665 12 10.3665C10.6874 10.3665 9.44843 9.79694 8.69292 8.8712C7.93741 9.79694 6.69841 10.3665 5.38586 10.3665C3.26094 10.3665 1.3288 8.87377 1.3288 6.79354C1.3288 6.73782 1.33501 6.68227 1.34731 6.62792L2.39165 2.01529ZM9.44292 6.79354C9.44292 6.37932 9.10714 6.04354 8.69292 6.04354C8.27871 6.04354 7.94292 6.37932 7.94292 6.79354C7.94292 7.83144 6.91382 8.86647 5.38586 8.86647C3.8951 8.86647 2.87921 7.88123 2.83062 6.86933L3.72232 2.93091H20.2777L21.1694 6.86933C21.1208 7.88122 20.1049 8.86647 18.6141 8.86647C17.0862 8.86647 16.057 7.83143 16.057 6.79354C16.057 6.37932 15.7213 6.04354 15.307 6.04354C14.8928 6.04354 14.557 6.37932 14.557 6.79354C14.557 7.83144 13.5279 8.86647 12 8.86647C10.472 8.86647 9.44292 7.83144 9.44292 6.79354Z"></path><path d="M3.20093 11.2568C3.61514 11.2568 3.95093 11.5926 3.95093 12.0068V19.9573C3.95093 20.6477 4.51057 21.2073 5.20093 21.2073H18.799C19.4894 21.2073 20.049 20.6477 20.049 19.9573V12.0068C20.049 11.5926 20.3848 11.2568 20.799 11.2568C21.2133 11.2568 21.549 11.5926 21.549 12.0068V19.9573C21.549 21.4761 20.3178 22.7073 18.799 22.7073H5.20093C3.68215 22.7073 2.45093 21.4761 2.45093 19.9573V12.0068C2.45093 11.5926 2.78671 11.2568 3.20093 11.2568Z"></path><path d="M8.73125 14.2434C8.31703 14.2434 7.98125 14.5792 7.98125 14.9934C7.98125 15.4076 8.31703 15.7434 8.73125 15.7434H15.2687C15.6829 15.7434 16.0187 15.4076 16.0187 14.9934C16.0187 14.5792 15.6829 14.2434 15.2687 14.2434H8.73125Z"></path></svg>