<svg width="20" height="20" viewBox="0 0 24 24" xmlns="http://www.w3.org/2000/svg" fill="currentColor" size="20"><path d="M7 2.25C4.92893 2.25 3.25 3.92893 3.25 6V18C3.25 20.0711 4.92893 21.75 7 21.75H12C12.4142 21.75 12.75 21.4142 12.75 21C12.75 20.5858 12.4142 20.25 12 20.25H7C5.75736 20.25 4.75 19.2426 4.75 18V6C4.75 4.75736 5.75736 3.75 7 3.75H17C18.2426 3.75 19.25 4.75736 19.25 6V12.049C19.25 12.4632 19.5858 12.799 20 12.799C20.4142 12.799 20.75 12.4632 20.75 12.049V6C20.75 3.92893 19.0711 2.25 17 2.25H7Z"></path><path d="M8 7.25C7.58579 7.25 7.25 7.58579 7.25 8 7.25 8.41421 7.58579 8.75 8 8.75H16C16.4142 8.75 16.75 8.41421 16.75 8 16.75 7.58579 16.4142 7.25 16 7.25H8ZM7.25 12C7.25 11.5858 7.58579 11.25 8 11.25H12C12.4142 11.25 12.75 11.5858 12.75 12 12.75 12.4142 12.4142 12.75 12 12.75H8C7.58579 12.75 7.25 12.4142 7.25 12Z"></path><path fill-rule="evenodd" clip-rule="evenodd" d="M18.364 14.2283C18.0695 14.1513 17.76 14.1524 17.4661 14.2316L15.3055 14.8137C14.5416 15.0195 14.0107 15.7123 14.0107 16.5035V18.1887C14.0107 19.5476 14.7459 20.8001 15.9323 21.4627L17.0714 22.0989C17.5949 22.3913 18.2315 22.3953 18.7586 22.1096L19.9571 21.46C21.1666 20.8044 21.9201 19.539 21.9201 18.1632V16.5094C21.9201 15.7134 21.3829 15.0177 20.6128 14.8163L18.364 14.2283ZM17.8563 15.68C17.8983 15.6687 17.9425 15.6685 17.9846 15.6795L20.2333 16.2675C20.3433 16.2963 20.4201 16.3957 20.4201 16.5094V18.1632C20.4201 18.9887 19.968 19.7479 19.2423 20.1413L18.0438 20.7908C17.9685 20.8317 17.8776 20.8311 17.8028 20.7893L16.6636 20.1531C15.9518 19.7556 15.5107 19.004 15.5107 18.1887V16.5035C15.5107 16.3905 15.5866 16.2915 15.6957 16.2621L17.8563 15.68Z"></path></svg>