<svg width="20" height="20" viewBox="0 0 24 24" xmlns="http://www.w3.org/2000/svg" fill="currentColor" size="20"><path d="M3.89395 15.6879L1.78239 13.7333C1.62905 13.5913 1.54187 13.3918 1.54187 13.1829V5.64573C1.54187 5.37383 1.68903 5.12322 1.92648 4.99075C2.16393 4.85829 2.45448 4.86471 2.68584 5.00754L5.1085 6.50312C5.50481 6.27371 6.11251 5.94467 6.8041 5.64474C7.78795 5.21806 9.08817 4.78354 10.2084 4.91316C10.8246 4.98446 11.342 5.28082 11.6759 5.51872C12.4813 4.9065 13.8114 4.44101 15.4186 5.19546C16.683 5.78896 18.1191 6.27166 18.9302 6.5443L19.1069 6.60376L21.3134 5.23814C21.5447 5.09496 21.8354 5.08828 22.0731 5.22068C22.3108 5.35309 22.4581 5.60381 22.4581 5.87587V13.1829C22.4581 13.4047 22.3599 13.6151 22.19 13.7576L18.8669 16.5439L18.8488 16.5638C18.8141 16.6018 18.7635 16.6569 18.6989 16.7265C18.5696 16.8657 18.3839 17.0631 18.1562 17.2981C17.7018 17.767 17.0758 18.39 16.3952 18.9991C15.7197 19.6036 14.9671 20.2156 14.2619 20.6469C13.9099 20.8622 13.5441 21.0485 13.1869 21.1611C12.84 21.2704 12.4189 21.3363 12.0071 21.2039C11.7306 21.115 11.451 20.9631 11.2032 20.8039C10.5667 21.2102 9.21477 21.6181 7.94014 20.581C7.42736 20.1638 6.63875 19.484 5.85765 18.8106L5.85632 18.8095C5.06803 18.1299 4.28632 17.4561 3.76864 17.0333C3.45734 16.7791 3.40178 16.3246 3.64267 16.0029C3.71819 15.902 3.80244 15.7963 3.89395 15.6879ZM12.2911 6.99238L12.2814 7.00428L9.27872 10.6198C9.39341 10.9117 9.69749 11.308 10.4146 11.4021C10.7667 11.4484 11.2669 11.2322 11.852 10.6975C12.4032 10.1937 12.8728 9.54859 13.1287 9.11676C13.2585 8.89779 13.4904 8.75958 13.7448 8.74969C13.9991 8.73979 14.2411 8.85956 14.3875 9.06778L18.4896 14.9027L20.9581 12.833V7.2221L19.5929 8.06706C19.3956 8.1892 19.1528 8.2131 18.9354 8.13179C18.8682 8.10665 18.7338 8.0616 18.5484 7.99948C17.7834 7.74315 16.15 7.1958 14.7812 6.5533C13.5165 5.95962 12.6152 6.58548 12.2911 6.99238ZM13.7784 10.8096C13.5149 11.1452 13.2052 11.4929 12.8639 11.8047C12.213 12.3996 11.2689 13.0272 10.2192 12.8894C8.37938 12.6477 7.77 11.2333 7.72149 10.4671C7.7094 10.2761 7.77076 10.0877 7.89302 9.94052L10.6407 6.63203C10.4451 6.51415 10.2355 6.4263 10.036 6.40322C9.34016 6.32271 8.35862 6.60556 7.40091 7.0209C6.47731 7.42144 5.71219 7.88353 5.50474 8.01494C5.26234 8.16849 4.95358 8.17028 4.70942 8.01955L3.04187 6.99012V12.8551L4.9587 14.6295C5.09015 14.5203 5.22451 14.4162 5.36002 14.3199C5.69465 14.0822 6.07608 13.8633 6.46777 13.7501C6.85774 13.6374 7.36534 13.6022 7.82084 13.9019C7.84389 13.9171 7.86609 13.9336 7.88734 13.9512L12.309 17.6184C12.5767 17.8405 12.6567 18.2175 12.502 18.5291L12.0031 19.5346C12.1786 19.6485 12.3407 19.7355 12.4664 19.7759C12.4755 19.7772 12.5529 19.7881 12.7361 19.7304C12.9331 19.6683 13.183 19.5485 13.4792 19.3673C14.0704 19.0058 14.7445 18.4634 15.3949 17.8813C16.0403 17.3037 16.6396 16.7077 17.0791 16.2542C17.1919 16.1378 17.2939 16.0311 17.3831 15.9368L13.7784 10.8096ZM6.81917 17.6591L6.8368 17.6743C7.62581 18.3545 8.39471 19.0171 8.88681 19.4175C9.4386 19.8664 9.99919 19.7503 10.297 19.5982L10.8945 18.394L7.0047 15.1679C6.98288 15.1688 6.94458 15.1737 6.88434 15.1911C6.71966 15.2387 6.49499 15.3536 6.22876 15.5427C5.90641 15.7717 5.58135 16.0676 5.30411 16.3606C5.75945 16.7456 6.29314 17.2056 6.81917 17.6591Z"></path></svg>