<svg width="20" height="20" viewBox="0 0 24 24" xmlns="http://www.w3.org/2000/svg" fill="currentColor" size="20"><path fill-rule="evenodd" clip-rule="evenodd" d="M3.25 6C3.25 3.92893 4.92893 2.25 7 2.25H17C19.0711 2.25 20.75 3.92893 20.75 6V12.0745C20.75 12.4888 20.4142 12.8245 20 12.8245C19.5858 12.8245 19.25 12.4888 19.25 12.0745V6C19.25 4.75736 18.2426 3.75 17 3.75H7C5.75736 3.75 4.75 4.75736 4.75 6V18C4.75 19.2426 5.75736 20.25 7 20.25H11.1917C11.6059 20.25 11.9417 20.5858 11.9417 21C11.9417 21.4142 11.6059 21.75 11.1917 21.75H7C4.92893 21.75 3.25 20.0711 3.25 18V6ZM7.25 8C7.25 7.58579 7.58579 7.25 8 7.25H16C16.4142 7.25 16.75 7.58579 16.75 8C16.75 8.41421 16.4142 8.75 16 8.75H8C7.58579 8.75 7.25 8.41421 7.25 8ZM8 11.25C7.58579 11.25 7.25 11.5858 7.25 12C7.25 12.4142 7.58579 12.75 8 12.75H12C12.4142 12.75 12.75 12.4142 12.75 12C12.75 11.5858 12.4142 11.25 12 11.25H8Z"></path><path fill-rule="evenodd" clip-rule="evenodd" d="M15.2502 16C15.2502 14.4812 16.4814 13.25 18.0002 13.25C19.519 13.25 20.7502 14.4812 20.7502 16C20.7502 16.4551 20.6394 16.8845 20.4437 17.2626C21.3517 17.9129 22.0122 18.9091 22.2804 20.0573C22.5441 21.186 21.5673 21.9694 20.6635 21.9694H15.3361C14.4324 21.9694 13.4556 21.186 13.7192 20.0573C13.9875 18.9089 14.6482 17.9124 15.5565 17.2622C15.361 16.8842 15.2502 16.4549 15.2502 16ZM18.0002 14.75C17.3099 14.75 16.7502 15.3096 16.7502 16C16.7502 16.3705 16.9105 16.7026 17.1678 16.9326C17.3592 17.1035 17.4498 17.3605 17.4081 17.6137C17.3664 17.8669 17.1982 18.0812 16.9621 18.1818C16.1083 18.5457 15.4226 19.3596 15.1799 20.3985C15.1794 20.4005 15.1791 20.4021 15.179 20.4033C15.1803 20.4055 15.1828 20.4091 15.1874 20.414C15.2098 20.4381 15.2622 20.4694 15.3361 20.4694H20.6635C20.7375 20.4694 20.7898 20.4381 20.8123 20.414C20.8169 20.4091 20.8194 20.4055 20.8207 20.4033C20.8205 20.4021 20.8202 20.4005 20.8198 20.3985C20.5771 19.3598 19.8916 18.5459 19.0379 18.182C18.8019 18.0813 18.6337 17.867 18.592 17.6138C18.5504 17.3606 18.6411 17.1037 18.8324 16.9327C19.0899 16.7027 19.2502 16.3706 19.2502 16C19.2502 15.3096 18.6906 14.75 18.0002 14.75Z"></path></svg>