<svg width="20" height="20" viewBox="0 0 24 24" xmlns="http://www.w3.org/2000/svg" fill="currentColor" size="20"><path d="M20 5.5C20.8284 5.5 21.5 6.17157 21.5 7V17C21.5 17.8284 20.8284 18.5 20 18.5H4C3.17157 18.5 2.5 17.8284 2.5 17V7C2.5 6.17157 3.17157 5.5 4 5.5H20ZM4 4C2.34315 4 1 5.34315 1 7V17C1 18.6569 2.34315 20 4 20H20C21.6569 20 23 18.6569 23 17V7C23 5.34315 21.6569 4 20 4H4Z"></path><path d="M14.7773 11.1326C15.444 11.5175 15.444 12.4797 14.7773 12.8646L11.0273 15.0297C10.3607 15.4146 9.52734 14.9334 9.52734 14.1636L9.52734 9.83352C9.52734 9.06372 10.3607 8.5826 11.0273 8.9675L14.7773 11.1326Z"></path></svg>