<svg width="24" height="24" viewBox="0 0 24 24" fill="currentColor" xmlns="http://www.w3.org/2000/svg" size="24"><g clip-path="url(#clip0_7_1337)"><path d="M12 24C18.6274 24 24 18.6274 24 12C24 5.37258 18.6274 0 12 0C5.37258 0 0 5.37258 0 12C0 18.6274 5.37258 24 12 24Z" fill="#0088CC"></path><path d="M19.0012 6.75849C18.9523 7.13458 18.8807 7.50737 18.7869 7.87485L16.7754 17.3794C16.747 17.5638 16.6861 17.7416 16.5957 17.9048C16.534 18.0278 16.4308 18.1251 16.3043 18.1795C16.1778 18.2339 16.0362 18.2419 15.9044 18.202C15.7173 18.1559 15.5419 18.0711 15.3895 17.9532C14.3768 17.1997 13.3607 16.4566 12.3514 15.6997C12.3315 15.6772 12.3066 15.6595 12.2788 15.6481C12.251 15.6366 12.2209 15.6317 12.1908 15.6337C12.1608 15.6357 12.1316 15.6446 12.1055 15.6596C12.0795 15.6746 12.0572 15.6954 12.0404 15.7204C11.5427 16.2181 11.0346 16.702 10.5369 17.1928C10.4502 17.2893 10.3433 17.3656 10.2239 17.4163C10.1045 17.4671 9.97544 17.4911 9.84574 17.4866C9.76144 17.4933 9.67754 17.4689 9.61002 17.4179C9.5425 17.367 9.49602 17.293 9.47937 17.2101C9.16831 16.2354 8.85033 15.2642 8.53236 14.2896C8.42522 13.9439 8.31462 13.6294 8.21439 13.2976C8.2019 13.2441 8.17449 13.1953 8.13533 13.1567C8.09618 13.1182 8.04689 13.0915 7.99319 13.0799C7.00471 12.7757 6.01623 12.4647 5.0243 12.1536C4.89242 12.1186 4.76574 12.0663 4.64757 11.9981C4.58127 11.9785 4.52238 11.9394 4.47851 11.886C4.43464 11.8325 4.40781 11.7672 4.40148 11.6983C4.39515 11.6294 4.40962 11.5603 4.44302 11.4997C4.47641 11.4392 4.5272 11.3901 4.58881 11.3587C4.76022 11.2149 4.95721 11.1046 5.16946 11.0338L9.21669 9.47162L17.9574 6.1018L18.0266 6.07416C18.5796 5.85296 18.9978 6.13982 19.0012 6.75849ZM9.85954 16.5396C9.91484 16.5119 9.90794 16.4774 9.91144 16.4497C9.97704 15.7377 10.0461 15.0292 10.1049 14.3172C10.1076 14.2348 10.1274 14.1538 10.1631 14.0794C10.1988 14.005 10.2496 13.9389 10.3123 13.8852C12.2086 12.1824 14.1038 10.4739 15.9978 8.75964C16.1187 8.6525 16.2397 8.54535 16.3434 8.43475C16.3918 8.38637 16.454 8.33452 16.416 8.25849C16.3779 8.18245 16.295 8.18245 16.219 8.19282C16.0782 8.21694 15.9447 8.27246 15.8284 8.35526C13.5012 9.83222 11.1683 11.3057 8.8296 12.7757C8.80201 12.7875 8.7772 12.8049 8.75677 12.8268C8.73633 12.8487 8.72072 12.8747 8.71095 12.903C8.70118 12.9314 8.69746 12.9615 8.70004 12.9913C8.70261 13.0212 8.71143 13.0502 8.72591 13.0764C9.01623 13.9439 9.29619 14.8045 9.5796 15.679C9.68328 15.9624 9.77664 16.2492 9.85954 16.5396Z" fill="#FDFDFD"></path></g><defs><clipPath id="clip0_7_1337"><rect width="24" height="24" fill="white"></rect></clipPath></defs></svg>